<svg xmlns="http://www.w3.org/2000/svg" width="720" height="140" viewBox="0 0 720 140">
  <defs>
    <linearGradient id="p" x1="0" x2="0" y1="0" y2="1">
      <stop offset="0" stop-color="#8e5f48"/>
      <stop offset="1" stop-color="#5d3d30"/>
    </linearGradient>
    <filter id="shadow" x="-20%" y="-20%" width="140%" height="140%">
      <feDropShadow dx="0" dy="4" stdDeviation="6" flood-color="#000" flood-opacity="0.25"/>
    </filter>
  </defs>
  <rect x="0" y="0" width="720" height="140" fill="none"/>
  <g fill="url(#p)" stroke="#3d251d" stroke-width="4" filter="url(#shadow)">
    <path d="M80,100 Q40,100 40,70 Q40,40 80,40 Q95,40 110,46 Q104,54 100,60 Q90,56 80,56 Q56,56 56,70 Q56,84 80,84 Q90,84 100,80 Q104,86 110,94 Q95,100 80,100 Z"/>
    <path d="M150,100 L176,40 L202,100 L188,100 L182,86 L170,86 L164,100 Z M173,72 L179,72 L176,64 Z"/>
    <path d="M245,100 Q205,100 205,70 Q205,40 245,40 Q260,40 275,46 Q269,54 265,60 Q255,56 245,56 Q221,56 221,70 Q221,84 245,84 Q255,84 265,80 Q269,86 275,94 Q260,100 245,100 Z"/>
    <path d="M315,100 L341,40 L367,100 L353,100 L347,86 L335,86 L329,100 Z M338,72 L344,72 L341,64 Z"/>
    <path d="M390,100 L390,40 L406,40 L420,64 L434,40 L450,40 L450,100 L436,100 L436,66 L420,86 L404,66 L404,100 Z"/>
    <path d="M510,100 Q480,100 480,70 Q480,40 510,40 Q540,40 540,70 Q540,100 510,100 Z M510,84 Q526,84 526,70 Q526,56 510,56 Q494,56 494,70 Q494,84 510,84 Z"/>
    <path d="M600,100 Q560,100 560,70 Q560,40 600,40 Q615,40 630,46 Q624,54 620,60 Q610,56 600,56 Q576,56 576,70 Q576,84 600,84 Q610,84 620,80 Q624,86 630,94 Q615,100 600,100 Z"/>
    <path d="M655,100 L655,40 L671,40 L671,66 L689,66 L689,40 L705,40 L705,100 L689,100 L689,82 L671,82 L671,100 Z"/>
    <path d="M718,40 L734,40 L734,100 L718,100 Z"/>
  </g>
</svg>